<?xml version="1.0" ?><svg style="enable-background:new 0 0 48 48.00004;" version="1.1" viewBox="0 0 48 48.00004" xml:space="preserve" xmlns="http://www.w3.org/2000/svg" xmlns:xlink="http://www.w3.org/1999/xlink"><g id="Icons"><g><linearGradient gradientUnits="userSpaceOnUse" id="SVGID_1_" x1="24" x2="24" y1="40.30028" y2="34.31699"><stop offset="0.09694" style="stop-color:#FFD879"/><stop offset="0.15387" style="stop-color:#FCCB76"/><stop offset="0.25828" style="stop-color:#F5AA6C"/><stop offset="0.39756" style="stop-color:#E9755E"/><stop offset="0.44898" style="stop-color:#E45F58"/><stop offset="0.67857" style="stop-color:#D22A9C"/><stop offset="1" style="stop-color:#6968DF"/></linearGradient><path d="M30.67172,39.0526H17.32828c-1.08098,0-1.95729-0.87631-1.95729-1.95729V36.1749h17.25802    v0.92041C32.62901,38.1763,31.7527,39.0526,30.67172,39.0526z" style="fill:url(#SVGID_1_);"/><rect height="23.42005" style="fill:#F4F4F4;" width="17.25802" x="15.37099" y="12.75485"/><g><linearGradient gradientUnits="userSpaceOnUse" id="SVGID_2_" x1="24.1002" x2="24.1002" y1="15.72685" y2="6.97181"><stop offset="0.09694" style="stop-color:#FFD879"/><stop offset="0.15387" style="stop-color:#FCCB76"/><stop offset="0.25828" style="stop-color:#F5AA6C"/><stop offset="0.39756" style="stop-color:#E9755E"/><stop offset="0.44898" style="stop-color:#E45F58"/><stop offset="0.67857" style="stop-color:#D22A9C"/><stop offset="1" style="stop-color:#6968DF"/></linearGradient><path d="M30.33772,8.94744H17.86268c-1.37612,0-2.49169,1.11557-2.49169,2.49169v1.31573h17.45843     v-1.31573C32.82941,10.063,31.71385,8.94744,30.33772,8.94744z" style="fill:url(#SVGID_2_);"/></g><path d="    M30.51314,39.0526H17.48686c-1.16856,0-2.11587-0.94731-2.11587-2.11587V11.06331c0-1.16856,0.94731-2.11587,2.11587-2.11587    h13.02628c1.16856,0,2.11587,0.94731,2.11587,2.11587v25.87343C32.62901,38.1053,31.6817,39.0526,30.51314,39.0526z" style="fill:none;stroke:#303030;stroke-width:0.7;stroke-linecap:round;stroke-linejoin:round;stroke-miterlimit:10;"/><line style="fill:none;stroke:#303030;stroke-width:0.7;stroke-linecap:round;stroke-linejoin:round;stroke-miterlimit:10;" x1="15.49647" x2="32.52921" y1="12.75485" y2="12.75485"/><line style="fill:none;stroke:#303030;stroke-width:0.7;stroke-linecap:round;stroke-linejoin:round;stroke-miterlimit:10;" x1="32.44885" x2="15.44707" y1="36.1749" y2="36.1749"/><circle cx="24" cy="37.56835" r="0.64537" style="fill:#FFFFFF;"/><ellipse cx="26.88283" cy="10.82125" rx="0.36534" ry="0.32871" style="fill:#FFFFFF;"/><line style="fill:none;stroke:#FFFFFF;stroke-width:0.7;stroke-linecap:round;stroke-linejoin:round;stroke-miterlimit:10;" x1="20.75183" x2="24.47485" y1="10.82125" y2="10.82125"/><line style="fill:none;stroke:#303030;stroke-width:0.7;stroke-linecap:round;stroke-linejoin:round;stroke-miterlimit:10;" x1="20.48108" x2="17.61101" y1="14.2083" y2="16.79059"/><line style="fill:none;stroke:#303030;stroke-width:0.7;stroke-linecap:round;stroke-linejoin:round;stroke-miterlimit:10;" x1="21.01124" x2="19.22268" y1="15.49945" y2="17.10867"/><g><linearGradient gradientUnits="userSpaceOnUse" id="SVGID_3_" x1="24" x2="24" y1="30.70081" y2="17.96429"><stop offset="0.09694" style="stop-color:#FFD879"/><stop offset="0.15387" style="stop-color:#FCCB76"/><stop offset="0.25828" style="stop-color:#F5AA6C"/><stop offset="0.39756" style="stop-color:#E9755E"/><stop offset="0.44898" style="stop-color:#E45F58"/><stop offset="0.67857" style="stop-color:#D22A9C"/><stop offset="1" style="stop-color:#6968DF"/></linearGradient><path d="M26.58051,29.92407h-5.16126c-1.58707,0-2.87844-1.29137-2.87844-2.87868v-5.16103     c0-1.58731,1.29137-2.87868,2.87844-2.87868h5.16126c1.58731,0,2.87868,1.29137,2.87868,2.87868v5.16103     C29.45919,28.6327,28.16782,29.92407,26.58051,29.92407z" style="fill:url(#SVGID_3_);"/></g><circle cx="24" cy="24.46488" r="2.05996" style="fill:none;stroke:#FFFFFF;stroke-width:0.7;stroke-linecap:round;stroke-linejoin:round;stroke-miterlimit:10;"/><circle cx="26.72131" cy="21.83241" r="0.29604" style="fill:#FFFFFF;"/><g><path d="     M26.04852,28.79862h-4.09723c-1.25989,0-2.28503-1.02514-2.28503-2.28522v-4.09705c0-1.26007,1.02514-2.28522,2.28503-2.28522     h4.09723c1.26007,0,2.28522,1.02514,2.28522,2.28522v4.09705C28.33374,27.77348,27.3086,28.79862,26.04852,28.79862z" style="fill:none;stroke:#FFFFFF;stroke-width:0.7;stroke-linecap:round;stroke-linejoin:round;stroke-miterlimit:10;"/></g></g></g></svg>